<?xml version="1.0" encoding="UTF-8"?><svg id="Logo_2" xmlns="http://www.w3.org/2000/svg" viewBox="0 0 360 145.82"><defs><style>.cls-1{fill:#231f20;}</style></defs><path class="cls-1" d="m57.66,42.68c0-18.35,11.5-29.09,25.88-29.09,9.81,0,17,5.33,19.7,12.6l.25-11.76h2.29v20.05h-2.2c-2.71-12.86-10.06-18.35-19.96-18.35-12.78,0-22.92,9.64-22.92,26.22v.42c0,16.75,9.81,26.14,22.66,26.14,9.48,0,18.53-4.57,20.47-16.92l2.88.59c-2.11,12.94-11.59,18.86-23.35,18.86-14.55,0-25.71-10.83-25.71-28.76Z"/><path class="cls-1" d="m111.64,68.14h6.34c.59,0,.93-.25.93-1.52V18.32c0-1.27-.34-1.44-.93-1.44h-6.34v-2.46h17.68v2.46h-6.52c-.59,0-.93.17-.93,1.44v22.5h32.82v-22.5c0-1.27-.34-1.44-.93-1.44h-6.51v-2.46h17.67v2.46h-6.34c-.59,0-.93.17-.93,1.44v48.3c0,1.27.34,1.52.93,1.52h6.34v2.45h-17.67v-2.45h6.51c.59,0,.93-.25.93-1.52v-23.35h-32.82v23.35c0,1.27.34,1.52.93,1.52h6.52v2.45h-17.68v-2.45Z"/><path class="cls-1" d="m168.69,50.97c0-12.1,8-20.34,18.85-20.34s18.79,8.3,18.79,20.34-8,20.22-18.85,20.22-18.79-8.24-18.79-20.22Zm35.57.3v-.6c0-10.85-7.23-18.26-16.72-18.26s-16.78,7.41-16.78,18.26v.6c0,10.79,7.18,18.14,16.72,18.14s16.78-7.23,16.78-18.14Z"/><path class="cls-1" d="m210.87,42.68c0-18.35,11.5-29.09,25.88-29.09,9.81,0,17,5.33,19.7,12.6l.25-11.76h2.29v20.05h-2.2c-2.71-12.86-10.06-18.35-19.96-18.35-12.78,0-22.92,9.64-22.92,26.22v.42c0,16.75,9.81,26.14,22.66,26.14,9.48,0,18.53-4.57,20.47-16.92l2.88.59c-2.11,12.94-11.59,18.86-23.35,18.86-14.55,0-25.71-10.83-25.71-28.76Z"/><path class="cls-1" d="m264.69,50.97c0-12.1,8-20.34,18.86-20.34s18.79,8.3,18.79,20.34-8,20.22-18.86,20.22-18.79-8.24-18.79-20.22Zm35.58.3v-.6c0-10.85-7.24-18.26-16.72-18.26s-16.78,7.41-16.78,18.26v.6c0,10.79,7.18,18.14,16.72,18.14s16.78-7.23,16.78-18.14Z"/><path class="cls-1" d="m78.57,128.94h7.42c.7,0,1.09-.25,1.09-1.52v-49.82h-20.1c-1.18,0-1.88.34-1.98,1.27l-.2,9.64h-2.97v-13.28h53.95v13.28h-2.97l-.2-9.64c-.1-1.02-.69-1.27-1.98-1.27h-20.1v49.82c0,1.27.39,1.52,1.09,1.52h7.42v2.45h-20.5v-2.45Z"/><path class="cls-1" d="m122.04,111.76c0-12.1,8-20.34,18.85-20.34s18.79,8.3,18.79,20.34-8,20.22-18.85,20.22-18.79-8.24-18.79-20.22Zm35.57.3v-.59c0-10.85-7.23-18.26-16.72-18.26s-16.78,7.41-16.78,18.26v.59c0,10.79,7.18,18.14,16.72,18.14s16.78-7.23,16.78-18.14Z"/><path class="cls-1" d="m174.96,75.23l37.3,51.08v-47.2c0-1.27-.34-1.44-.93-1.44h-6.34v-2.45h17.34v2.45h-6.34c-.59,0-.93.17-.93,1.44v52.53h-2.37l-39.17-53.46v49.31c0,1.27.34,1.44.94,1.44h6.34v2.45h-17.42v-2.45h6.43c.59,0,.93-.17.93-1.44v-48.38c0-1.27-.34-1.44-.93-1.44h-6.43v-2.45h11.58Z"/><path class="cls-1" d="m225.82,128.94h6.34c.59,0,.93-.25.93-1.52v-48.3c0-1.27-.34-1.44-.93-1.44h-6.34v-2.45h17.51v2.45h-6.34c-.59,0-.93.17-.93,1.44v48.3c0,1.27.34,1.52.93,1.52h6.34v2.45h-17.51v-2.45Z"/><path class="cls-1" d="m248.08,103.47c0-18.35,11.5-29.09,25.88-29.09,9.81,0,17,5.33,19.71,12.6l.25-11.76h2.29v20.04h-2.2c-2.71-12.86-10.07-18.35-19.97-18.35-12.77,0-22.92,9.64-22.92,26.22v.42c0,16.75,9.81,26.14,22.67,26.14,9.47,0,18.52-4.57,20.47-16.92l2.87.59c-2.11,12.94-11.58,18.86-23.34,18.86-14.55,0-25.72-10.83-25.72-28.76Z"/><rect class="cls-1" x="168.41" y="21.33" width="36.29" height="1.76"/><rect class="cls-1" x="123.01" y="81.76" width="36.29" height="1.76"/><rect class="cls-1" x="265.21" y="21.33" width="36.29" height="1.76"/></svg>