<?xml version="1.0" standalone="no"?>
<!DOCTYPE svg PUBLIC "-//W3C//DTD SVG 20010904//EN"
 "http://www.w3.org/TR/2001/REC-SVG-20010904/DTD/svg10.dtd">
<svg version="1.0" xmlns="http://www.w3.org/2000/svg"
 width="120.000000pt" height="120.000000pt" viewBox="0 0 120.000000 120.000000"
 preserveAspectRatio="xMidYMid meet">

<g transform="translate(0.000000,120.000000) scale(0.100000,-0.100000)"
fill="#000000" stroke="none">
<path d="M472 1185 c-224 -49 -409 -236 -457 -462 -68 -320 140 -640 462 -708
321 -68 640 140 708 462 68 320 -140 640 -462 708 -83 18 -168 18 -251 0z
m208 -55 c0 -5 -10 -15 -22 -21 l-23 -12 20 21 c23 24 25 25 25 12z m-254
-129 c-6 -9 -46 -22 -46 -15 0 3 10 9 23 14 29 11 29 11 23 1z m-54 -139 c-12
-8 -72 -4 -72 4 0 2 19 4 43 4 25 0 37 -4 29 -8z"/>
</g>
</svg>
