<?xml version="1.0" encoding="UTF-8"?><svg id="Logo" xmlns="http://www.w3.org/2000/svg" viewBox="0 0 568.9 568.9"><defs><style>.cls-1{fill:#15763b;}.cls-1,.cls-2,.cls-3,.cls-4,.cls-5,.cls-6,.cls-7,.cls-8,.cls-9{stroke-width:0px;}.cls-2{fill:#71b250;}.cls-3{fill:#73c055;}.cls-4{fill:#15411f;}.cls-5,.cls-10{fill:none;}.cls-6{fill:#114120;}.cls-7{fill:#a8d494;}.cls-8{fill:#5baa46;}.cls-10{stroke:#15411f;stroke-miterlimit:10;stroke-width:4.33px;}.cls-9{fill:#16753b;}</style></defs><circle class="cls-7" cx="284.59" cy="284.35" r="279.02"/><path class="cls-3" d="m459.8,77.49s-32.03,9.67-40.71,57.56c-8.68,47.89-6.11,56.08-29.05,78.59s-45.56,10.63-56.35,12.61c-10.79,1.98-13.68,12.01-25.83,14.13-12.16,2.13-44.52,4.41-58.04,13.68-13.52,9.27-22.89,19.41-31.61,30.39-8.72,10.98,46.16,29.85,47.47,31.56s258.26-.8,259.17,0,31.61,3.38,31.61,3.38l1.52-75.06-39.2-102.72-58.96-64.12Z"/><path class="cls-2" d="m308.74,292.58s-8.79-56.75-8.89-77.72c-.1-20.97,4.82-35.25,8.89-40.93,4.07-5.67,12.69-32.21,14.31-48.12,1.62-15.9,7.5-109,5.88-111.84-1.62-2.84-8.31-2.33-8.31-2.33,0,0-1.92,61.54-2.63,79.24-.71,17.7-2.15,36.14-3.46,41.71-1.3,5.57-11.86,36.06-16.66,45.99-4.8,9.93-5.71,18.23-5.61,21.27.1,3.04-.2,16.82-6.89,13.37-6.69-3.44-15.6-18.34-17.63-31-2.03-12.66,2.06-34.04,4.42-40.32,2.37-6.28,6.45-46.4,0-65.03-6.45-18.64-27.11-60.27-28.13-61.79s-9.32,3.33-9.32,3.33c0,0,21.17,48.84,25.73,62.31,4.56,13.47,4.96,35.56,3.44,48.02-1.52,12.46-4.09,36.87-4.2,39.84-.11,2.96-1.71,26.02,2.62,36.77s23.06,39.79,26,49,5.67,44.37,5.67,44.37l14.77-6.16Z"/><path class="cls-8" d="m58.75,132.7s3.95,8.97,20.87,14.28,31.55,10.59,48.42,11.24c16.87.66,16.87-3.75,21.78-3.55,4.91.2,9.67,1.27,13.68.91s3.29,1.27,8.41,1.42c5.12.15,24.16-1.11,38.34-6.64,14.18-5.52,33.18-12.87,51.31-28.82,17.27-17.68,34.64-37.78,39.25-46.8,4.61-9.02,22.79-56.47,22.79-57.64s3.75,0,3.75,0c0,0-21.68,53.74-23.7,57.13-2.03,3.39-9.32,16.87-18.28,26.54s-24.67,26.33-38.54,34.64c-13.88,8.31-27.2,16.47-46.75,20.77s-28.21,3.95-28.16,4.76-1.72,24.82-2.48,24.26-.66-6.84-.91-8.21-1.47-1.06-1.42-5.27-1.42-10.91-1.72-8.7-1.47,14.52-2.33,12.55.56-11.67-.91-12.55-3.44-2.29-4.15-1.03-1.47,7.7-2.03,5.17-2.13-4-2.63-3.34-4.05-2.13-10.84-2.23c-6.79-.1-24.82-.25-45.74-6.89-20.92-6.64-31.2-9.98-37.99-17.22-6.79-7.24,0-4.81,0-4.81Z"/><path class="cls-8" d="m148.3,105.76s-21.96,2.81-33.88,2.58c-11.93-.23-33.96-2.58-33.96-2.58l-2.43,1.3s19.98,3.34,36.47,3.72c16.49.38,58.8-7.29,58.8-7.29,0,0,4.96-2.05,6.15-1.01,1.19,1.04.76.61,2.13,1.06s1.34,4.79,1.72,5.52,1.09-.3,1.11-2.79c.03-2.48-.23-4.89.61-5.42s1.42-.86,1.92.76,1.37,3.62,2.13,2.23c.76-1.39.51-3.57,2.08-3.8s4.48-.53,4.46-1.42.2-1.9,1.37-1.42,1.19,2.56,2.08,2.99.33,3.93.81,4.2,1.8-3.75,1.8-5.75.38-3.11,2.13-3.9,31.86-12.23,38.9-15.63c7.04-3.39,53.61-27.76,75.34-39.99s27.2-20.7,27.2-20.7h-2.58s-60.7,37.42-71.57,43.34c-10.86,5.93-43.91,23.1-55.46,25.91-6.15,1.29-9.76,1.18-11.7,1.75s-6.88,1.56-9.19,2.43-8.66,1.33-11.85,3.49c-3.19,2.17-2.74,3.27-10.1,5.01-7.37,1.75-24.46,5.39-24.46,5.39Z"/><path class="cls-1" d="m58.48,142.82s8.32,4.02,17.69,21.49c9.37,17.47,16.92,32.49,21.73,37.06s13.26,10.98,16.13,64.56c4.28,1.71,6.92.13,6.92.13,0,0-3.14-35.7-3.44-48.97-.3-13.27-1.11-15.4.2-21.78s1.01-20.36-1.22-29.17c-2.23-8.81-21.43-62.77-20.85-69.98.59-7.21-5.29,0-5.29,0,0,0,1.82,16.8,7.29,31.38,5.47,14.59,13.98,42.44,14.59,50.04.61,7.6-1.11,16.21-4.86,16.41-3.75.2-9.62-3.85-12.76-11.35-3.14-7.5-21.43-38.26-33.83-47.59-5.27-3.56-6.25,4.86-2.3,7.77Z"/><path class="cls-1" d="m450.7,195.19s-.82-.44-3.74-.53-4.41-.09-4.61-.22-.34-1.04,0-.97,2.07.6,1.98.13-.17-2.04-.71-3.11-.96-1.69-.81-2.24-.18-1.1-.4-1.43-1.93-2.2-2.26-3.21-2.01-3.31-3.19-4.82-3.94-4.03-5.35-5.21-1.65-1.5-1.74-2.09-.46-1.05-.43-1.59.18-.99-.86-2.36-2.18-3.83-5.68-5.75-6.05-.44-6.29-.18-.34,1.73-.28,2.19-.44.68-.5,2.16-.15,2.75,1.29,4.56.96.78.85.18-.26-1.71.05-1.43,1.69,1.53,1.33,1.86-2.62,2.89-2.64,3.64,1.54,3.4,1.52,3.8-.22,4.15.92,5.82,3.06,3.93,3.43,4.11.28.62.83,1.35,1.59,1.95,1.28,2.26-1.01,1.05-1.01,1.49-.11.97-.4,1-1.14.34-1.43.86.21.93-.96.42-2.66-.95-4.6-3.42c-1.94-2.47-3.91-5.83-4.51-6.84s-1.77-2.69-1.35-2.67,3.2-.07,4.17-1.79.92-3.49.23-4.73-1.32-2.87-1.81-2.56-3.21,1.89-3.97,3.01-1.13,2.73-1.06,2.94-.33.17-.75-.5-1.65-1.73-2.64-2.31-1.69-.61-1.08-.98,2.08-1.97,1.99-3.45-1.74-3.51-2.13-3.94-1.03-1.58-1-2.14.33-1.59-.17-1.18-3.5,3.51-3.87,5.76,1.03,3.74,2.03,4.3,3.03,1.17,4.53,2.68,2.4,2.91,1.53,2.16-3.55-1.87-5.81-2.62c-2.26-.76-3.19-1.07-4.25-1.79s-3.01-2.45-2.73-2.72,3.42-3.82,2.03-6.16-2.24-2.8-3.57-3.47-3.62-1.76-3.92-1.26-1.14,5.18-.37,7.01c.77,1.83,1.98,3.04,3.79,3.67s1.25.03,2.23,1.71,3.45,2.57,3.45,2.57c0,0-2.34.85-3.26,1.79s-1.7,1.82-1.33,3.85.8,2.83.91.91c.5-1.08,2.62-1.91,3.64-1.91s2.86-.02,3.69-.47,1.24-1.44,1.81-1.36,3.52,1.7,4.48,3.19,4.32,7.24,5.41,8.7,2.42,2.79,2.42,2.79c0,0-1.16,1.55-2.62,1.98-1.45.42-4.96,1.13-6,1.54s-3.64,2.56-3.74,2.21-.52-2.95-3.21-2.84-3.66,1.49-3.65,1.59,1.25,1.91,2.77,2.59,2.37.65,2.91.22,3.69-2.67,3.54-2.31-1.22,1.86-2.7,3.5c-1.48,1.64-2.36,2.23-3.67,2.33s-2.1.53-.73.48,2.54-.09,3.55-.96,2.34-3.32,2.19-2.71-.32,1.77-.8,2.23-1.49,1.44-1.35,1.83.88,1.3.79,2.57-1.2,2.34-1.63,2.54,1.38-.18,2.34-.27,2.68-1.59,2.99-2.24,0-2.75-.53-3.31-2.22-.67-1.79-1.86.77-2.93,2.33-3.69,5.41-1.28,7.42-2.5,2.08-2.34,2.67-2.06,2.9,3.14,6.71,3.4,5.42-.5,5.9.18,2.71,3.69,2.93,4.09.22,1.45.61,1.83.37,0,.37,1.46c0,1.47,1.57,25.46,2.43,25.8s.86-3.37,1.11-2.61,1.06,9.34,1.99,11.69c.93,2.35,2.21-2.79,2.13-8.24s-1.06-19.49-.6-19.4.86.08.8-.38-.41-3.3-.37-4.32-.22-2.91.55-1.23,2.27,4.1,2.46,2.74.05-3.55-.32-3.99.56-.68.27-1.79-1.49-3.4-1.2-3.65.26-1.5-.07-2.21-1.76-1.64-.28-1.68c1.48-.03,8.21.29,9.15,1.23v-3.24Z"/><path class="cls-1" d="m502.5,127.18s-11.32,13.25-23.25,35.88c-11.93,22.63-15.57,22.4-16.56,25.06-.99,2.66-7.7,14.18-8.86,25.83-1.16,11.65-.71,58.04-.71,58.04l-7.39-.81s-1.57-41.18,1.22-59.26c2.79-18.08,1.77-26.08.96-37.63-.81-11.55.96-26.34,5.67-41.53,4.71-15.19,16.01-48.88,16.01-48.88h4.31s-10.59,41.63-12.62,46.9-9.72,27.65-6.84,37.63c2.89,9.98,9.93,5.82,12.16,1.72,2.23-4.1,21.17-41.03,32.97-51.36,11.8-10.33,2.94,8.41,2.94,8.41Z"/><path class="cls-1" d="m200.78,28.06s2.94,12.85,2.84,20.15c-.1,7.3-.3,37.19,2.84,59.47,3.14,22.29,3.14,30.69,7.09,37.89,3.95,7.19,11.65,21.37,12.56,28.57.91,7.19,2.13,25.53,0,37.89-2.13,12.36-4.25,57.84-2.94,74.15,1.32,16.31,6.89,10.13,6.89,10.13,0,0,3.14-52.57,6.89-66.86,3.75-14.28,21.07-44.67,22.79-54.7,1.72-10.03-1.99-49.03-3.07-57.74-1.08-8.71-2.1-32.92,9.05-56.12,11.14-23.2,25.22-50.24,24.11-51.26s-9.52,0-9.52,0c0,0-28.77,53.39-31.4,71.72-2.63,18.34-3.34,33.61-.41,42.34,2.94,8.74,9.42,29.38,5.17,40.93-4.25,11.55-11.04,22.59-15.8,23.3-4.76.71-4.96-3.39-4.86-8.08s-3.55-20.39-6.69-24.54c-3.14-4.15-12.46-27.96-13.57-42.14s-1.32-87.42-2.33-89.85-9.62,4.76-9.62,4.76Z"/><path class="cls-1" d="m291.95,64.6c4.08,2.09,55.01,24.39,60.98,48.85,5.98,24.46,3.85,42.14,2.84,48.27s-9.42,32.52-9.52,39.2.28,63.24,1.53,75.42c1.25,12.18,14.88-3.55,14.88-3.55,0,0,12.16-58.55,15.19-75.16,3.04-16.61,10.8-63.01,12.19-80.74s3.11-34.24,1.69-39.2-10.03-40.93-9.72-46.6c.3-5.67-12.76-9.12-12.76-9.12,0,0,3.85,25.32,7.29,29.17s10.64,40.16,9.52,49.76c-1.11,9.6-5.88,35.13-6.69,40.39-.81,5.27-5.37,30.29-6.18,38.39s-5.57,34.75-8.51,35.05-4.91-3.24-4.33-8.91c.58-5.67,5.85-70.4,3.52-80.63s-15.4-42.24-32.01-52.78c-16.61-10.54-59.36-28.77-65.03-31.81s-30.19-22-30.59-24.02-5.27,2.95-5.27,2.95c0,0,24.31,26.29,60.98,45.05Z"/><path class="cls-10" d="m256.66,18.42s84.44,123.73,266.75,144.73"/><path class="cls-4" d="m468.23,91.25s-15.32,18.71-38.32,31.53c-23,12.81-47.66,22.59-73.7,25.63-18.08,1.57-18.13,1.62-19.45,1.06s-3.42-.84-3.8-1.06-.89-1.09-3.24-1.06c-2.36.03-5.98.76-9.17-.76s-5.19-4.28-10.59.66-9.04,2.36-10.79.91c-1.75-1.44-3.57-2.81-5.32-1.37s-1.9,5.55-6.38,4.86-30.39-2.2-53.94-9.57c-23.55-7.37-34.95-12.54-49.46-21.58-14.51-9.04-47.2-32.01-60.22-48.94-2.99-3.64-4.82-1.36-4.82-1.36,0,0,26.44,27.5,37.23,35.1,10.79,7.6,32.82,27.88,83.57,41.03,32.21,7.45,43.08,8.28,45.96,8.31s3.98-.18,5.22.81,3.52,2.08,4.89,1.32,3.7-1.11,4.1.25.81,5.85,2.13,4.1,3.06-4.56,4.15-2.94,1.92,6.79,3.04,6.23,1.57-5.01,3.65-3.85,4.46-1.09,5.12,6.51-1.49,24.49.18,25.45,1.47,6.74,1.52,8.31c.05,1.57,2.33-.35,2.33-4.46s.05-18.44.41-16.71,1.06,1.27,1.01-3.55c-.05-4.81-1.57-21.93-.2-20.87s.71,1.2,2.13,3.82,1.92,1.05,1.92,5.91.35,14.08,1.11,12.87,1.47-15.85,1.42-17.73-.1-4.86.91-4.15,1.62,2.33,1.92,6.08.86,7.75.91,10.13c.05,2.38-.1,14.64.71,14.99s2.13-2.38,1.82-4.96-1.11-21.32,0-21.58,1.57-1.42,1.62-3.34.35-3.49,1.92-3.44,30.09-1.11,58.6-12.16c28.52-11.04,59.26-31.6,72.94-47.45,13.68-15.86-3.07-2.96-3.07-2.96Z"/><path class="cls-4" d="m411.48,49.94s-7.39,3.74-11.95,5.47c-4.56,1.72-10.48,4.61-11.95,3.75s-2.84-2.18-4.76-1.42-1.29,1.63-4.76,1.57-5.17,1.82-6.43,2.48-4,1.98-6.99,1.98-7.09.84-8.71,1.87-4.69,2.2-5.88,2.13-3.27.62-3.39,1.73,1.82,2.43-6.18,4.35c-8,1.92-26.19,7.55-54.35,8.41-28.16.86-47.1,3.29-73.54-1.32-26.44-4.61-58.55-12.63-75.19-18.95-16.64-6.32-11.37-.24-11.37-.24,0,0,37.28,13.22,60.48,17.93,23.2,4.71,33.23,7.5,70.45,6.99,37.23-.51,56.12-3.7,62.3-4.86s27.71-7.45,28.47-6.79,2.18,2.53,3.24,2.74,2.33,1.06,2.53,4.96c.2,3.9,2.28,5.94,2.53,4.01s-.51-12.42.51-11.91,1.47-.41,2.43,1.52c.96,1.92.66,3.49,1.92,2.23s3.75-3.29,4.15-4.81.15-1.77,2.33-1.72c2.18.05,2.94-.35,3.55-1.92s1.27-3.15,2.53-1.4.81,8.84,3.14,10.21.1-2.63,1.42-3.04,2.03-.81,1.82-3.04-.1-9.07,1.11-7.7,1.77,5.22,1.82,9.02c.05,3.8.71,17.37,1.92,16.71s.86-7.29,2.33-7.7,2.53-2.38,1.92-4.76-3.65-6.74-2.53-9.32c1.11-2.58-.61-7.04,3.44-8.1,4.05-1.06,16.7-5.11,25.42-8.94s-.2-3.88-.45-3.83-3.34,1.73-3.34,1.73Z"/><path class="cls-5" d="m162.69,521.73c36.5,18.77,77.9,29.37,121.76,29.37,41.14,0,80.1-9.32,114.89-25.96-54.95-2.21-103.74-19.58-137.08-45.92-25.06,23.36-60.13,39.09-99.58,42.51Z"/><path class="cls-5" d="m146.41,263.11c47.91,0,90.75,18.08,119.26,46.5,35.68-26.72,87.68-43.55,145.6-43.55,54.47,0,103.71,14.89,139.06,38.89.51-6.77.78-13.6.78-20.5,0-147.27-119.38-266.65-266.65-266.65S17.8,137.18,17.8,284.45c0,11.19.7,22.21,2.04,33.03,28.19-32.91,74.38-54.37,126.57-54.37Z"/><path class="cls-9" d="m216.5,395.72c0-33.05,18.59-63.21,49.17-86.11-28.52-28.42-71.35-46.5-119.26-46.5-52.19,0-98.38,21.46-126.57,54.37,11.02,89.23,66.12,164.8,142.85,204.25,39.45-3.42,74.51-19.16,99.58-42.51-28.55-22.56-45.76-51.69-45.76-83.49Z"/><path class="cls-9" d="m411.26,266.06c-57.92,0-109.92,16.84-145.6,43.55-30.58,22.9-49.17,53.06-49.17,86.11s17.21,60.93,45.76,83.49c33.33,26.34,82.13,43.71,137.08,45.92,83.92-40.13,143.58-122.85,150.98-220.19-35.35-24-84.59-38.89-139.06-38.89Z"/><path class="cls-6" d="m566.94,317.8c1.28-10.94,1.96-22.07,1.96-33.35C568.9,127.35,441.55,0,284.45,0S0,127.35,0,284.45c0,18.5,1.79,36.59,5.16,54.11,14.66,76.13,59.67,141.46,121.96,182.89,45.06,29.97,99.15,47.45,157.33,47.45s108.92-16.4,153.13-44.69c70.12-44.88,119.24-119.69,129.37-206.4Zm-167.6,207.34c-34.79,16.64-73.75,25.96-114.89,25.96-43.87,0-85.26-10.6-121.76-29.37-76.73-39.45-131.82-115.02-142.85-204.25-1.34-10.82-2.04-21.84-2.04-33.03C17.8,137.18,137.18,17.8,284.45,17.8s266.65,119.38,266.65,266.65c0,6.9-.26,13.74-.78,20.5-7.4,97.33-67.06,180.06-150.98,220.19Z"/><path class="cls-6" d="m538.65,345.57c.94-.53,6.97-5.49-.59-2.23-7.55,3.26-21.03,17.51-25.03,26.32-3.99,8.81-6.7,5.29-8.11,5.05-1.41-.24,3.7-8.87,3.64-10.93-.06-2.06-11.34,14.28-12.63,15.39-1.29,1.12.47-21.09,0-25.44-.47-4.35-15.86,3.47-19.03,4.82-3.17,1.35-15.57.53-10.57-6.11,4.99-6.64,21.91-6.46,25.5-6.23,3.58.23,1-9.46.7-10.22s-11.87,4.7-14.22,1.53c-2.35-3.17,6.7-7.52,11.28-8.22,4.58-.7,1.35-10.4.82-16.33-.53-5.93-1.17-3.35-10.69-2.35-9.52,1-14.04-1.06-21.45,2.7-7.41,3.76-2.75,13.45-1.81,15.45.94,2,4.93,11.98-3.17,13.04-8.11,1.06-6.58-15.33-6.11-21.15.47-5.82-16.8,5.58-19.97,8.81-3.17,3.23-1.17,9.81,2.94,13.98,4.11,4.17,6.81,15.22,8.46,22.32,1.64,7.11-5.11,15.98-14.22,10.81-9.11-5.17-8.46-17.8-8.93-39.13-13.51,4.76-27.55,23.67-29.14,27.02s.41,6.29-1.76,6.23c-2.17-.06-6.05.59-7.87,1.29-1.82.7-1.94-2.64-2.58-1.88s-1.17,2.58-5.76,3.52c-4.58.94-6.52,2.64-12.57,5.4-6.05,2.76-5.7-.18-5.87-1.41-.18-1.23,5.11-3.7,12.69-5.87,7.58-2.17,16.27-11.81,23.15-16.1s-11.28,1.7-15.98,3.41c-4.7,1.7-16.51,6.7-17.74,6.23-1.23-.47,32.72-26.49,38.07-30.31,5.35-3.82,1.88-2.76-7.28.12-9.16,2.88-31.49,19.97-34.78,21.74s-2.58-1.23-3.05-2.7c-.47-1.47,13.86-10.63,20.91-15.04,7.05-4.41,20.03-16.1,22.21-19.5,2.17-3.41-6.52.94-21.5,8.46-14.98,7.52-21.79,16.74-26.67,20.91-4.88,4.17-5.64,2.41-6.46,2.58-.82.18.47-6.52,1.59-8.05,1.12-1.53,20.39-12.81,30.2-18.92,9.81-6.11,25.2-21.85,26.08-24.32.88-2.47-5.35,1.23-17.62,8.81-12.28,7.58-30.72,23.97-33.25,26.32-2.53,2.35-4.64,2.29-4.82,1.29-.18-1,2.35-6.29,6.7-8.69,4.35-2.41,17.39-12.57,24.79-18.09,7.4-5.52,27.38-22.32,29.73-25.61,2.35-3.29-12.28,4.64-17.04,6.93s-13.98,7.81-22.56,14.33c-8.58,6.52-13.63,13.57-16.1,15.39-2.47,1.82-.35-4.82,1.06-7.93,1.41-3.11,3.94-4.41,17.39-13.75,13.45-9.34,19.86-19.09,21.5-20.56,1.64-1.47,11.46-9.28-1.53-2.94-12.98,6.34-18.51,16.51-19.97,18.56-1.47,2.06-12.28,9.16-14.33,10.1s-.29-8.34.82-12.28c1.12-3.94,9.16-7.4,16.33-10.57,7.17-3.17,20.44-14.28,21.27-15.74.82-1.47-4.64,1.12-18.92,7.87-14.28,6.76-9.81,7.28-13.63,9.28-3.82,2-.53-5.05.06-6.81.59-1.76,7.23-4.99,16.8-10.34,9.58-5.35,18.51-15.98,19.27-17.51.76-1.53-4.64,1.41-12.1,5.29-7.46,3.88-18.74,12.04-20.44,12.92-1.7.88-.35-3.23.12-5.05.47-1.82,5.17-3.64,10.34-5.99s19.56-14.39,21.15-17.51c1.59-3.11-23.91,12.34-27.02,13.28-3.11.94-1.94.12-1.64-1.17s4.41-4.29,9.16-7.52,8.17-8.17,6.81-10.1c-1.35-1.94-15.69,11.81-16.68,12.69s-5.99-17.57-7.28-18.7-1.35,2.31-1.53,5.3c-.18,3,5.87,16.45,5.87,19.74s-2.7-1.82-4.03-3.88c-1.33-2.06-9.42-16.33-12.77-16.57-3.35-.23,8.99,25.03,11.63,28.79,2.64,3.76.12,5.05-1.76,2.7-1.88-2.35-11.98-20.85-13.51-22.56-1.53-1.7-.82,3.35,1.53,9.63,2.35,6.29,11.1,20.62,12.45,21.97,1.35,1.35-.59,10.69-2.11,11.4-1.53.7-2.94-8.46-5.05-13.75-2.11-5.29-12.69-18.92-17.15-22.44-4.46-3.52,1.88,9.05,3.41,15.39,1.53,6.34,14.75,21.62,16.21,24.44,1.47,2.82-1.76,16.8-2.35,18.33-.59,1.53-5.99-12.81-8.69-20.21-2.7-7.4-15.86-26.14-18.21-26.91-2.35-.76,7.75,21.09,11.87,26.67,4.11,5.58,12.57,21.27,13.39,23.15.82,1.88-1.94,9.52-2.35,10.57-.41,1.06-7.52-15.22-11.87-22.32-4.35-7.11-15.45-27.43-18.09-29.37-2.64-1.94,4.82,19.68,10.16,27.08,5.35,7.4,17.21,28.67,18.09,31.02.88,2.35-1.29,9.16-2.47,9.75-1.17.59-11.28-23.09-13.51-27.96-2.23-4.88-14.28-19.27-16.8-21.15-2.53-1.88.12,4.29,5.17,17.62s21.68,35.01,23.67,37.01-2.17,10.69-3.29,12.34c-1.12,1.64-6.4-10.57-12.1-21.97-5.7-11.4-24.79-30.72-28.55-34.07-3.76-3.35,3.23,7.87,9.75,19.62,6.52,11.75,25.91,39.18,27.61,41.47,1.7,2.29-2.53,7.87-3.05,8.69-.53.82-3.41-4.29-8.58-19.15-5.17-14.86-21.85-31.25-25.61-32.55-3.76-1.29,14.75,34.31,13.51,35.25s-8.52-11.16-17.62-16.33c-1.33-.75-2.2-1.01-2.74-.93,1.98-2.95,3.51-5.54,4.27-7.14,2.2-4.63,2.47-6.87,1.89-8.11-.57-1.23-11.59,8.42-25.86,21.63s-17.1,19.86-19.39,21.79-1.53-2-1.06-5.05c.47-3.05,8.69-12.87,19.5-28.08,10.81-15.22,11.28-34.13,11.4-39.71.12-5.58-.59-7.23-4.58,1.88-3.99,9.11-27.32,49.35-29.43,51.11s-3.23-5.46-3.64-7.64c-.41-2.17,1.7-4.76,3.99-7.17,2.29-2.41,14.92-20.15,17.15-32.43,2.23-12.28-6.23-24.32-7.98-26.2-1.75-1.88-.36,15.8,0,21.15.35,5.35-10.99,23.91-13.75,29.14-2.76,5.23-3.11,5.4-4.58,3.99-1.47-1.41-1.17-4.41,0-5.99,1.17-1.59,6.58-13.98,7.17-23.26s-3.64-18.68-8.28-29.84c-4.64-11.16-3.17-5.7-.24,10.22,4.23,20.27-1.94,36.01-2.82,37.83-.88,1.82-4.7-5.82-4.93-6.7-.24-.88,3-15.04,2.35-27.61-.65-12.57-18.27-36.48-20.56-38.07-2.29-1.59,4.46,13.63,8.34,23.85,3.88,10.22,4.49,30.19,4.64,32.94.15,2.75-8.13-9.65-8.55-10.57-.42-.93-.62-2.51-.53-13.26.09-10.75-17.18-32.6-21.68-37.19-4.49-4.58,8.81,23.79,10.05,28.37,1.23,4.58.79,6.08-10.4-6.52-11.19-12.6-23.79-14.36-26.44-14.45-2.64-.09,9.16,7.4,30.49,27.14,21.32,19.74,34.54,45.82,42.91,63.62,8.99,16.21,11.1,66.71,11.28,70.85.18,4.14-5.2-3.7-6.87-6.17-1.67-2.47,2.11-2.82-2.64-25.55-4.76-22.73-27.49-46.17-30.49-47.41s-1.41,40.18-4.05,50.23c-2.64,10.05-9.87,13.13-16.57,9.52-6.7-3.61,3.88-26.17,5.64-30.84,1.76-4.67,3.08-27.67,2.64-33.66-.44-5.99-14.89-13.13-20.27-14.63-5.38-1.5-.18,6.79,1.41,9.52,1.59,2.73,2.29,24.23,0,34.37-2.29,10.13-10.93,7.4-13.92,3.7-3-3.7-1.59-26,.18-31.02,1.76-5.02,2.91-14.19,0-24.85-2.91-10.66-23.35-6.17-28.2-5.11-4.85,1.06,6.96,15.77,7.05,18.51s3.61,19.39-4.05,16.04c-7.67-3.35-11.1-26.44-12.87-32.43s-8.81-2.38-13.75-1.94c-4.93.44-1.67,4.14.53,7.58,2.2,3.44,2.64,9.96-.7,11.1-3.35,1.15-8.72-4.05-13.57-13.57s-19.65-7.84-25.55-6.17-3.44,4.85-4.41,10.05c-.97,5.2-3.35,15.77-5.46,20.62-2.11,4.85-5.29,6.96-3.7,10.05s23.18,7.31,34.49,10.05c7.96,6.61,2.26,20.36-8.23,23.79-10.49,3.44-22.82-5.99-26.08-7.75-3.26-1.76-1.85,20.09-1.61,24.67.24,4.58,7.52,7.05,8.31,6.87.79-.18,19.65-7.23,34.37-8.28,14.72-1.06,26.88,2.38,29.26,8.46,2.38,6.08-5.02,10.93-31.37,10.05-26.35-.88-36.48-3.88-39.83-5.29-3.35-1.41,5.91,31.07,5.91,31.07,0,0,36.46,64.07,101.19,96.25,64.73,32.18,98.66,32.09,141.49,32,42.83-.09,86.85-18.47,123.44-38.53,36.59-20.07,64.57-54.88,64.57-54.88,0,0,19.75-24.18,34.6-51.9-1.47.52-4.69.43-5.65-.08-.98-.51,8.62-6.53,9.26-6.93.46-.94.92-1.88,1.36-2.83,14.93-31.57,12.15-31.49,12.15-31.49-10.39,3.93-19.04,12.4-21.04,13.99-2,1.59-.82-3.94,4.11-13.98,4.93-10.05,15.74-19.92,16.68-20.44Zm-462.16-18.33c-1.35,1.29-6.76,2.53-10.69.7-3.94-1.82-2.35-9.16-2.35-9.16.21-1.39,6.05.59,10.69,2.35,4.64,1.76,3.7,4.82,2.35,6.11Zm27.08,45.76c-8.69.76-17.64-.06-15.74-2.58,2.16-2.88,4.52-6.7,15.86-8.46,11.34-1.76,15.57,2.06,15.63,3.76.06,1.7-7.05,6.52-15.74,7.28Zm118.14,4.29c-1.7,9.69-6.99,12.69-9.75,9.63-2.76-3.05-.29-12.98.94-20.68.11-.71,1.82-9.46,5.05-8.34s5.46,9.69,3.76,19.39Zm22.56-2.29s3.73-1.62,7.7-.53c3.97,1.09-5.46,3.76-6.52,4.23-1.06.47-1.26-2.88-1.17-3.7Zm13.04,10.99c1.76.23,1.47,4.17,1.06,6.22s-8.69-1.99-12.1-2.75c-3.41-.76,1.35-3.18,5.52-3.47,0,0,3.76-.24,5.52,0Zm-12.21,9.28c.83-3.11,11.27,4.52,11.62,10.34-10.1-2.41-12-8.93-11.62-10.34Zm15.91,31.31c-1.79-1.26-17.65-13.07-14.33-20.09,2.39,1.25,14.04,11.93,14.86,14.63.82,2.7,1.26,6.73-.53,5.46Zm3-72.32c-1.47-.94-2.76,7.4-4.58,9.05-1.82,1.64-12.92,7.46-15.27,7.75s-2.79-2.58-2.13-4.83c.66-2.25,16.04-11.28,23.88-17.45,4.81-3.78,9.87-10.07,13.57-15.43,0,3.23,6.3,12.73,7.14,14.22,1.16,2.06-7.56,7.05-9.32,7.87-1.76.82-3.64-3.99-6.46-6.34-2.82-2.35.53,5.46,1.88,7.17,1.35,1.7-3.35,2.76-5.87,3.41-2.53.65-1.35-4.46-2.82-5.4Zm13.04,17.44c-1.41-1.58-5.98-3.35-4.35-4.63,1.75-1.37,3.94-3.47,4.35-1.29.41,2.17,1.41,7.5,0,5.93Zm.73,25.8c-7.38-4.7-6.81-11.76-5.42-15.04.94-2.23,8.93,8.05,14.57,15.63s-1.76,4.11-9.14-.59Zm31.82-6.11c-1.59,1.53-3.41-2.11-4.93-5.4-1.53-3.29-11.98-15.45-17.86-21.27,0,0-3.76-3.17-5.64-4.82-1.88-1.64,4.58-5.7,6.93-8.11,2.35-2.41,20.97,27.08,23.03,31.14,2.06,4.05.06,6.93-1.53,8.46Zm48.76.24c-3.7,1.76-5.46-.88-5.87-2.88-.41-2,2.52-1.93,5.87-2.29,1.84-.19,3.94-4.29,6.81-4.7s-3.11,8.11-6.81,9.87Zm42.06,12.34c-2.82-2.06-23.92-24.33-21.38-26.55,2.13-1.87,6.17-6.34,9.4-3.52,3.23,2.82,19.68,15.51,19.39,21.85-.29,6.34-4.58,10.28-7.4,8.22Zm89.82-6.76c-1.47,3.88-18.09,7.87-24.44,8.81-6.34.94-13.57-.18-15.98-3.52-2.41-3.34-1.29-9.82,4.58-13.05,5.87-3.23,26.82-5.24,32.43-3.94,2.53.58,4.88,7.82,3.41,11.69Zm7.64-2.47c-2.38,2.47.74-9.74,4.23-12.16,6.34-4.41-1.85,9.69-4.23,12.16Zm30.61-1.11s-7.13,5.16-8.58,4.55c-1.45-.62,12.01-12.66,12.01-12.66l-3.42,8.12Zm-9.99-8.05c10.13-9.47,19.28-16.1,19.28-16.1l-3.24,9.26c-4.14,2.41-25.82,23.45-26.17,23.76-.35.31,0-7.45,10.13-16.92Z"/></svg>