<?xml version="1.0" encoding="UTF-8"?><svg id="Milk" xmlns="http://www.w3.org/2000/svg" viewBox="0 0 332.1 292.56"><defs><style>.cls-1{fill:#628e69;}.cls-2{fill:#224f2e;}.cls-3{fill:#327344;}.cls-4{fill:#598462;}.cls-5{fill:#204027;}.cls-6,.cls-7{fill:none;}.cls-8{fill:#2a6737;}.cls-7{stroke:#598462;stroke-miterlimit:10;stroke-width:2px;}</style></defs><circle class="cls-3" cx="166.11" cy="146.23" r="128.73"/><path class="cls-8" d="m246.95,50.79s-14.78,4.46-18.78,26.56c-4,22.09-2.82,25.87-13.4,36.26s-21.02,4.91-26,5.82c-4.98.91-6.31,5.54-11.92,6.52-5.61.98-20.54,2.03-26.78,6.31-6.24,4.28-10.56,8.96-14.58,14.02-4.02,5.07,21.3,13.77,21.9,14.56s119.15-.37,119.58,0,14.58,1.56,14.58,1.56l.7-34.63-18.09-47.39-27.2-29.59Z"/><path class="cls-2" d="m177.26,150.03s-4.06-26.18-4.1-35.86,2.22-16.26,4.1-18.88,5.85-14.86,6.6-22.2c.75-7.34,3.46-50.29,2.71-51.6s-3.83-1.07-3.83-1.07c0,0-.89,28.39-1.22,36.56s-.99,16.67-1.59,19.25-5.47,16.64-7.69,21.22-2.64,8.41-2.59,9.81-.09,7.76-3.18,6.17-7.2-8.46-8.13-14.3c-.93-5.84.95-15.7,2.04-18.6s2.97-21.41,0-30.01c-2.97-8.6-12.51-27.81-12.98-28.51s-4.3,1.54-4.3,1.54c0,0,9.77,22.53,11.87,28.75,2.1,6.22,2.29,16.41,1.59,22.15-.7,5.75-1.89,17.01-1.94,18.38s-.79,12.01,1.21,16.97,10.64,18.36,11.99,22.61,2.62,20.47,2.62,20.47l6.81-2.84Z"/><path class="cls-1" d="m61.92,76.26s1.82,4.14,9.63,6.59,14.56,4.88,22.34,5.19,7.78-1.73,10.05-1.64,4.46.58,6.31.42,1.52.58,3.88.65,11.15-.51,17.69-3.06c6.54-2.55,15.31-5.94,23.67-13.3,7.97-8.16,15.98-17.43,18.11-21.59s10.52-26.06,10.52-26.59,1.73,0,1.73,0c0,0-10,24.79-10.94,26.36s-4.3,7.78-8.44,12.25c-4.14,4.46-11.38,12.15-17.78,15.98-6.4,3.83-12.55,7.6-21.57,9.58-9.02,1.99-13.02,1.82-12.99,2.2s-.79,11.45-1.15,11.19-.3-3.15-.42-3.79-.68-.49-.65-2.43-.65-5.03-.79-4.01-.68,6.7-1.07,5.79.26-5.38-.42-5.79-1.59-1.06-1.92-.47-.68,3.55-.93,2.38-.98-1.85-1.22-1.54-1.87-.98-5-1.03-11.45-.12-21.1-3.18-14.4-4.6-17.53-7.95,0-2.22,0-2.22Z"/><path class="cls-1" d="m103.23,63.83s-10.13,1.3-15.63,1.19c-5.5-.11-15.67-1.19-15.67-1.19l-1.12.6s9.22,1.54,16.83,1.71c7.61.18,27.13-3.37,27.13-3.37,0,0,2.29-.95,2.84-.47s.35.28.98.49.62,2.21.79,2.55.5-.14.51-1.29-.11-2.26.28-2.5.65-.4.89.35.63,1.67.98,1.03.23-1.65.96-1.75,2.07-.25,2.06-.65.09-.88.63-.65.55,1.18.96,1.38.15,1.81.37,1.94.83-1.73.83-2.65.18-1.44.98-1.8,14.7-5.64,17.95-7.21,24.74-12.81,34.76-18.45c10.03-5.64,12.55-9.55,12.55-9.55h-1.19s-28.01,17.26-33.02,20c-5.01,2.73-20.26,10.66-25.59,11.95-2.84.6-4.5.54-5.4.81s-3.17.72-4.24,1.12-4,.61-5.47,1.61-1.26,1.51-4.66,2.31-11.29,2.49-11.29,2.49Z"/><path class="cls-2" d="m61.79,80.93s3.84,1.85,8.16,9.92,7.81,14.99,10.03,17.1,6.12,5.07,7.44,29.78c1.98.79,3.19.06,3.19.06,0,0-1.45-16.47-1.59-22.6-.14-6.12-.51-7.1.09-10.05s.47-9.39-.56-13.46c-1.03-4.07-9.89-28.96-9.62-32.29s-2.44,0-2.44,0c0,0,.84,7.75,3.37,14.48,2.52,6.73,6.45,19.58,6.73,23.09s-.51,7.48-2.24,7.57-4.44-1.78-5.89-5.23c-1.45-3.46-9.89-17.65-15.61-21.96-2.43-1.64-2.88,2.24-1.06,3.58Z"/><path class="cls-2" d="m242.75,105.09s-.38-.2-1.73-.25-2.03-.04-2.13-.1-.16-.48,0-.45.96.28.91.06-.08-.94-.33-1.43-.44-.78-.38-1.03-.08-.51-.18-.66-.89-1.02-1.04-1.48-.93-1.52-1.47-2.22-1.82-1.86-2.47-2.4-.76-.69-.8-.97-.21-.49-.2-.74.08-.46-.4-1.09-1.01-1.77-2.62-2.66-2.79-.2-2.9-.08-.16.8-.13,1.01-.2.31-.23,1-.07,1.27.59,2.1.44.36.39.08-.12-.79.02-.66.78.7.61.86-1.21,1.33-1.22,1.68.71,1.57.7,1.75-.1,1.92.43,2.69,1.41,1.81,1.58,1.9.13.29.38.62.73.9.59,1.04-.46.48-.46.69-.05.45-.19.46-.52.16-.66.39.1.43-.44.19-1.23-.44-2.12-1.58-1.8-2.69-2.08-3.16-.82-1.24-.62-1.23,1.48-.03,1.92-.83.43-1.61.11-2.18-.61-1.33-.84-1.18-1.48.87-1.83,1.39-.52,1.26-.49,1.36-.15.08-.34-.23-.76-.8-1.22-1.07-.78-.28-.5-.45.96-.91.92-1.59-.8-1.62-.98-1.82-.48-.73-.46-.99.15-.74-.08-.54-1.61,1.62-1.79,2.66.48,1.72.93,1.98,1.4.54,2.09,1.24,1.11,1.34.7,1-1.64-.86-2.68-1.21-1.47-.49-1.96-.83-1.39-1.13-1.26-1.26,1.58-1.76.93-2.84-1.03-1.29-1.65-1.6-1.67-.81-1.81-.58-.52,2.39-.17,3.23.91,1.4,1.75,1.69.58.02,1.03.79,1.59,1.19,1.59,1.19c0,0-1.08.39-1.5.83s-.79.84-.61,1.78.37,1.31.42.42c.23-.5,1.21-.88,1.68-.88s1.32-.01,1.7-.21.57-.67.84-.63,1.62.79,2.07,1.47,1.99,3.34,2.49,4.02,1.12,1.29,1.12,1.29c0,0-.54.72-1.21.91s-2.29.52-2.77.71-1.68,1.18-1.72,1.02-.24-1.36-1.48-1.31-1.69.69-1.69.74.57.88,1.28,1.2,1.09.3,1.34.1,1.7-1.23,1.63-1.07-.56.86-1.25,1.62-1.09,1.03-1.69,1.07-.97.25-.34.22,1.17-.04,1.64-.44,1.08-1.53,1.01-1.25-.15.82-.37,1.03-.69.67-.62.84.41.6.36,1.19-.56,1.08-.75,1.17.64-.08,1.08-.12,1.24-.73,1.38-1.03,0-1.27-.25-1.52-1.02-.31-.83-.86.36-1.35,1.07-1.7,2.49-.59,3.42-1.15.96-1.08,1.23-.95,1.34,1.45,3.1,1.57,2.5-.23,2.72.08,1.25,1.7,1.35,1.89.1.67.28.84.17,0,.17.67.72,11.75,1.12,11.9.4-1.55.51-1.21.49,4.31.92,5.39,1.02-1.29.98-3.8-.49-8.99-.28-8.95.39.04.37-.18-.19-1.52-.17-1.99-.1-1.34.25-.57,1.05,1.89,1.13,1.26.02-1.64-.15-1.84.26-.31.12-.83-.69-1.57-.55-1.68.12-.69-.03-1.02-.81-.76-.13-.77,3.79.13,4.22.57v-1.49Z"/><path class="cls-2" d="m266.65,73.72s-5.22,6.11-10.73,16.55-7.19,10.33-7.64,11.56-3.55,6.54-4.09,11.92c-.54,5.37-.33,26.78-.33,26.78l-3.41-.37s-.72-19,.56-27.34c1.29-8.34.82-12.04.44-17.36s.44-12.15,2.62-19.16c2.17-7.01,7.38-22.55,7.38-22.55h1.99s-4.89,19.21-5.82,21.64-4.49,12.76-3.15,17.36,4.58,2.69,5.61.79,9.77-18.93,15.21-23.7c5.44-4.77,1.36,3.88,1.36,3.88Z"/><path class="cls-2" d="m127.44,27.98s1.36,5.93,1.31,9.3-.14,17.16,1.31,27.44c1.45,10.28,1.45,14.16,3.27,17.48,1.82,3.32,5.37,9.86,5.8,13.18s.98,11.78,0,17.48-1.96,26.69-1.36,34.21,3.18,4.67,3.18,4.67c0,0,1.45-24.26,3.18-30.85s9.72-20.61,10.52-25.24c.79-4.63-.92-22.62-1.42-26.64s-.97-15.19,4.17-25.89c5.14-10.7,11.64-23.18,11.12-23.65s-4.39,0-4.39,0c0,0-13.27,24.63-14.49,33.09-1.22,8.46-1.54,15.51-.19,19.54s4.35,13.55,2.38,18.88-5.09,10.42-7.29,10.75-2.29-1.56-2.24-3.73-1.64-9.41-3.08-11.32c-1.45-1.92-5.75-12.9-6.26-19.44s-.61-40.33-1.07-41.46-4.44,2.2-4.44,2.2Z"/><path class="cls-2" d="m169.51,44.85c1.88.96,25.38,11.25,28.14,22.54,2.76,11.29,1.78,19.44,1.31,22.27s-4.35,15-4.39,18.09.13,29.18.7,34.8c.57,5.62,6.87-1.64,6.87-1.64,0,0,5.61-27.01,7.01-34.68s4.98-29.07,5.62-37.25,1.43-15.8.78-18.09-4.63-18.88-4.49-21.5-5.89-4.21-5.89-4.21c0,0,1.78,11.68,3.37,13.46s4.91,18.53,4.39,22.96-2.71,16.21-3.08,18.64-2.48,13.97-2.85,17.71-2.57,16.03-3.93,16.17-2.27-1.5-2-4.11,2.7-32.48,1.62-37.2-7.1-19.49-14.77-24.35c-7.67-4.86-27.39-13.27-30.01-14.68s-13.93-10.15-14.11-11.08-2.43,1.36-2.43,1.36c0,0,11.22,12.13,28.14,20.79Z"/><path class="cls-7" d="m153.23,23.54s38.96,57.09,123.07,66.78"/><path class="cls-4" d="m250.84,57.14s-7.07,8.63-17.68,14.55-21.99,10.42-34,11.82c-8.34.72-8.37.75-8.97.49s-1.58-.39-1.75-.49-.41-.5-1.5-.49-2.76.35-4.23-.35-2.4-1.97-4.88.3-4.17,1.09-4.98.42-1.65-1.3-2.45-.63-.88,2.56-2.94,2.24-14.02-1.02-24.89-4.42c-10.87-3.4-16.12-5.78-22.82-9.96s-21.78-14.77-27.78-22.58c-1.38-1.68-2.22-.63-2.22-.63,0,0,12.2,12.69,17.18,16.19s15.14,12.86,38.56,18.93c14.86,3.44,19.88,3.82,21.21,3.83s1.83-.08,2.41.37,1.62.96,2.26.61,1.71-.51,1.89.12.37,2.7.98,1.89,1.41-2.1,1.92-1.36.89,3.13,1.4,2.87.72-2.31,1.68-1.78,2.06-.5,2.36,3-.69,11.3.08,11.74.68,3.11.7,3.83,1.07-.16,1.07-2.06.02-8.51.19-7.71.49.58.47-1.64-.72-10.12-.09-9.63.33.55.98,1.76.89.48.89,2.73.16,6.5.51,5.94.68-7.31.65-8.18-.05-2.24.42-1.92.75,1.07.89,2.8.4,3.58.42,4.67-.05,6.75.33,6.92.98-1.1.84-2.29-.51-9.84,0-9.96.72-.65.75-1.54.16-1.61.89-1.59,13.88-.51,27.04-5.61c13.16-5.09,27.34-14.58,33.65-21.89s-1.41-1.37-1.41-1.37Z"/><path class="cls-4" d="m224.66,38.08s-3.41,1.73-5.51,2.52-4.84,2.13-5.52,1.73-1.31-1-2.2-.65-.6.75-2.2.73-2.38.84-2.97,1.14-1.85.91-3.22.91-3.27.39-4.02.86-2.16,1.02-2.71.98-1.51.28-1.57.8.84,1.12-2.85,2.01c-3.69.89-12.08,3.48-25.07,3.88-12.99.4-21.73,1.52-33.93-.61-12.2-2.13-27.01-5.83-34.69-8.74-7.68-2.92-5.25-.11-5.25-.11,0,0,17.2,6.1,27.9,8.27,10.7,2.17,15.33,3.46,32.51,3.22,17.18-.23,25.89-1.71,28.74-2.24,2.85-.54,12.78-3.44,13.13-3.13s1,1.17,1.5,1.26,1.07.49,1.17,2.29,1.05,2.74,1.17,1.85-.23-5.73.23-5.5.68-.19,1.12.7.3,1.61.89,1.03,1.73-1.52,1.92-2.22.07-.82,1.07-.79,1.36-.16,1.64-.89.58-1.45,1.17-.64.37,4.08,1.45,4.71.05-1.22.65-1.4.93-.37.84-1.4-.05-4.18.51-3.55.82,2.41.84,4.16.33,8.02.89,7.71.4-3.37,1.07-3.55,1.17-1.1.89-2.2-1.68-3.11-1.17-4.3-.28-3.25,1.59-3.74,7.71-2.36,11.73-4.12c4.02-1.76-.09-1.79-.21-1.76s-1.54.8-1.54.8Z"/><path class="cls-6" d="m109.87,255.76c16.84,8.66,35.94,13.55,56.18,13.55,18.98,0,36.96-4.3,53.01-11.98-25.35-1.02-47.87-9.04-63.25-21.19-11.56,10.78-27.74,18.04-45.94,19.62Z"/><path class="cls-6" d="m102.36,136.43c22.1,0,41.87,8.34,55.03,21.45,16.46-12.33,40.45-20.09,67.18-20.09,25.13,0,47.85,6.87,64.16,17.94.24-3.12.36-6.28.36-9.46,0-67.95-55.08-123.03-123.03-123.03s-123.03,55.08-123.03,123.03c0,5.16.32,10.25.94,15.24,13.01-15.19,34.32-25.09,58.4-25.09Z"/><path class="cls-2" d="m134.7,197.62c0-15.25,8.58-29.16,22.69-39.73-13.16-13.11-32.92-21.45-55.03-21.45-24.08,0-45.39,9.9-58.4,25.09,5.09,41.17,30.51,76.04,65.91,94.24,18.2-1.58,34.38-8.84,45.94-19.62-13.17-10.41-21.12-23.85-21.12-38.52Z"/><path class="cls-2" d="m224.56,137.79c-26.72,0-50.72,7.77-67.18,20.09-14.11,10.57-22.69,24.48-22.69,39.73s7.94,28.11,21.12,38.52c15.38,12.15,37.89,20.17,63.25,21.19,38.72-18.52,66.25-56.68,69.66-101.59-16.31-11.07-39.03-17.94-64.16-17.94Z"/><path class="cls-5" d="m296.39,161.67c.59-5.05.9-10.18.9-15.39,0-72.48-58.76-131.24-131.24-131.24S34.81,73.8,34.81,146.28c0,8.54.83,16.88,2.38,24.96,6.77,35.13,27.53,65.27,56.27,84.38,20.79,13.83,45.75,21.89,72.59,21.89s50.25-7.57,70.65-20.62c32.35-20.71,55.01-55.22,59.69-95.23Zm-77.33,95.66c-16.05,7.68-34.03,11.98-53.01,11.98-20.24,0-39.34-4.89-56.18-13.55-35.4-18.2-60.82-53.07-65.91-94.24-.62-4.99-.94-10.08-.94-15.24,0-67.95,55.08-123.03,123.03-123.03s123.03,55.08,123.03,123.03c0,3.18-.12,6.34-.36,9.46-3.41,44.91-30.94,83.07-69.66,101.59Z"/><path class="cls-5" d="m283.33,174.48c.43-.24,3.21-2.53-.27-1.03-3.49,1.5-9.7,8.08-11.55,12.14-1.84,4.07-3.09,2.44-3.74,2.33-.65-.11,1.71-4.09,1.68-5.04-.03-.95-5.23,6.59-5.83,7.1-.6.52.22-9.73,0-11.74-.22-2.01-7.32,1.6-8.78,2.22s-7.18.24-4.88-2.82,10.11-2.98,11.76-2.87c1.65.11.46-4.36.33-4.72s-5.48,2.17-6.56.7c-1.08-1.46,3.09-3.47,5.2-3.79s.62-4.8.38-7.54c-.24-2.74-.54-1.54-4.93-1.08-4.39.46-6.48-.49-9.9,1.25-3.42,1.73-1.27,6.21-.84,7.13s2.28,5.53-1.46,6.02c-3.74.49-3.04-7.07-2.82-9.76.22-2.68-7.75,2.57-9.22,4.07-1.46,1.49-.54,4.53,1.36,6.45,1.9,1.92,3.14,7.02,3.9,10.3.76,3.28-2.36,7.37-6.56,4.99-4.2-2.39-3.9-8.21-4.12-18.05-6.23,2.2-12.71,10.92-13.44,12.47s.19,2.9-.81,2.87c-1-.03-2.79.27-3.63.6-.84.33-.89-1.22-1.19-.87s-.54,1.19-2.66,1.63c-2.11.43-3.01,1.22-5.8,2.49-2.79,1.27-2.63-.08-2.71-.65-.08-.57,2.36-1.71,5.85-2.71,3.5-1,7.51-5.45,10.68-7.43s-5.2.79-7.37,1.57c-2.17.79-7.62,3.09-8.19,2.87-.57-.22,15.1-12.22,17.56-13.99,2.47-1.76.87-1.27-3.36.05-4.23,1.33-14.53,9.22-16.05,10.03s-1.19-.57-1.41-1.25c-.22-.68,6.4-4.91,9.65-6.94,3.25-2.03,9.24-7.43,10.25-9,1-1.57-3.01.43-9.92,3.9s-10.06,7.72-12.31,9.65c-2.25,1.92-2.6,1.11-2.98,1.19-.38.08.22-3.01.73-3.71.51-.7,9.41-5.91,13.93-8.73,4.53-2.82,11.63-10.08,12.03-11.22.41-1.14-2.47.57-8.13,4.07s-14.18,11.06-15.34,12.14c-1.17,1.08-2.14,1.06-2.22.6-.08-.46,1.08-2.9,3.09-4.01s8.02-5.8,11.44-8.35c3.42-2.55,12.63-10.3,13.71-11.82,1.08-1.52-5.66,2.14-7.86,3.2s-6.45,3.6-10.41,6.61c-3.96,3.01-6.29,6.26-7.43,7.1-1.14.84-.16-2.22.49-3.66.65-1.44,1.82-2.03,8.02-6.34,6.21-4.31,9.16-8.81,9.92-9.49.76-.68,5.29-4.28-.7-1.36-5.99,2.93-8.54,7.62-9.22,8.57-.68.95-5.66,4.23-6.61,4.66s-.14-3.85.38-5.66c.52-1.82,4.23-3.42,7.54-4.88,3.31-1.46,9.43-6.59,9.81-7.26.38-.68-2.14.52-8.73,3.63-6.59,3.12-4.53,3.36-6.29,4.28-1.76.92-.24-2.33.03-3.14.27-.81,3.33-2.3,7.75-4.77,4.42-2.47,8.54-7.37,8.89-8.08.35-.7-2.14.65-5.58,2.44-3.44,1.79-8.65,5.56-9.43,5.96-.79.41-.16-1.49.05-2.33.22-.84,2.39-1.68,4.77-2.76s9.03-6.64,9.76-8.08c.73-1.44-11.03,5.69-12.47,6.13-1.44.43-.89.05-.76-.54s2.03-1.98,4.23-3.47,3.77-3.77,3.14-4.66c-.62-.89-7.24,5.45-7.7,5.85s-2.76-8.1-3.36-8.63-.62,1.06-.7,2.45c-.08,1.38,2.71,7.59,2.71,9.11s-1.25-.84-1.86-1.79c-.61-.95-4.35-7.54-5.89-7.64-1.55-.11,4.15,11.55,5.37,13.28,1.22,1.73.05,2.33-.81,1.25-.87-1.08-5.53-9.62-6.23-10.41-.7-.79-.38,1.54.7,4.45s5.12,9.51,5.75,10.14-.27,4.93-.98,5.26c-.7.33-1.36-3.9-2.33-6.34-.98-2.44-5.85-8.73-7.91-10.35-2.06-1.63.87,4.17,1.57,7.1.7,2.93,6.8,9.97,7.48,11.28.68,1.3-.81,7.75-1.08,8.46-.27.7-2.76-5.91-4.01-9.32-1.25-3.42-7.32-12.06-8.4-12.41-1.08-.35,3.58,9.73,5.48,12.31,1.9,2.57,5.8,9.81,6.18,10.68.38.87-.89,4.39-1.08,4.88-.19.49-3.47-7.02-5.48-10.3-2.01-3.28-7.13-12.66-8.35-13.55-1.22-.89,2.22,9.08,4.69,12.5,2.47,3.42,7.94,13.23,8.35,14.31.41,1.08-.6,4.23-1.14,4.5-.54.27-5.2-10.65-6.23-12.9s-6.59-8.89-7.75-9.76c-1.17-.87.05,1.98,2.39,8.13s10,16.15,10.92,17.08-1,4.93-1.52,5.69c-.52.76-2.95-4.88-5.58-10.14-2.63-5.26-11.44-14.18-13.17-15.72s1.49,3.63,4.5,9.05c3.01,5.42,11.95,18.08,12.74,19.14.79,1.06-1.17,3.63-1.41,4.01-.24.38-1.57-1.98-3.96-8.84-2.39-6.86-10.08-14.42-11.82-15.02-1.73-.6,6.8,15.83,6.23,16.26s-3.93-5.15-8.13-7.54c-.61-.35-1.02-.47-1.27-.43.91-1.36,1.62-2.55,1.97-3.29,1.02-2.13,1.14-3.17.87-3.74-.26-.57-5.35,3.88-11.93,9.98s-7.89,9.16-8.94,10.06-.7-.92-.49-2.33c.22-1.41,4.01-5.94,9-12.96,4.99-7.02,5.2-15.75,5.26-18.32.05-2.57-.27-3.33-2.11.87-1.84,4.2-12.6,22.77-13.58,23.58s-1.49-2.52-1.68-3.52c-.19-1,.79-2.2,1.84-3.31,1.06-1.11,6.88-9.3,7.91-14.96,1.03-5.66-2.87-11.22-3.68-12.09-.81-.87-.17,7.29,0,9.76s-5.07,11.03-6.34,13.44c-1.27,2.41-1.44,2.49-2.11,1.84-.68-.65-.54-2.03,0-2.76.54-.73,3.04-6.45,3.31-10.73s-1.68-8.62-3.82-13.77-1.46-2.63-.11,4.72c1.95,9.35-.89,16.62-1.3,17.46-.41.84-2.17-2.68-2.28-3.09-.11-.41,1.38-6.94,1.08-12.74-.3-5.8-8.43-16.83-9.49-17.56-1.06-.73,2.06,6.29,3.85,11,1.79,4.72,2.07,13.93,2.14,15.2.07,1.27-3.75-4.45-3.94-4.88-.19-.43-.28-1.16-.24-6.12s-7.93-15.04-10-17.16c-2.07-2.11,4.07,10.98,4.63,13.09.57,2.11.37,2.81-4.8-3.01-5.16-5.81-10.98-6.63-12.2-6.67s4.23,3.42,14.07,12.52c9.84,9.11,15.94,21.14,19.8,29.35,4.15,7.48,5.12,30.78,5.2,32.69.08,1.91-2.4-1.71-3.17-2.85s.98-1.3-1.22-11.79c-2.2-10.49-12.68-21.3-14.07-21.87s-.65,18.54-1.87,23.17c-1.22,4.63-4.55,6.06-7.64,4.39-3.09-1.67,1.79-12.08,2.6-14.23.81-2.15,1.42-12.77,1.22-15.53-.2-2.76-6.87-6.06-9.35-6.75-2.48-.69-.08,3.13.65,4.39.73,1.26,1.06,11.18,0,15.86-1.06,4.68-5.04,3.42-6.42,1.71s-.73-11.99.08-14.31c.81-2.32,1.34-6.55,0-11.47-1.34-4.92-10.77-2.85-13.01-2.36-2.24.49,3.21,7.28,3.25,8.54s1.67,8.94-1.87,7.4c-3.54-1.54-5.12-12.2-5.94-14.96s-4.07-1.1-6.34-.89c-2.28.2-.77,1.91.24,3.5,1.02,1.59,1.22,4.59-.33,5.12-1.54.53-4.03-1.87-6.26-6.26s-9.07-3.62-11.79-2.85-1.59,2.24-2.03,4.63c-.45,2.4-1.54,7.28-2.52,9.51-.98,2.24-2.44,3.21-1.71,4.63s10.69,3.37,15.91,4.63c3.67,3.05,1.04,9.39-3.8,10.98-4.84,1.59-10.53-2.76-12.03-3.58-1.5-.81-.85,9.27-.74,11.38s3.47,3.25,3.83,3.17c.37-.08,9.07-3.33,15.86-3.82,6.79-.49,12.4,1.1,13.5,3.9,1.1,2.81-2.32,5.04-14.47,4.63-12.16-.41-16.83-1.79-18.38-2.44s2.72,14.34,2.72,14.34c0,0,16.82,29.56,46.69,44.41,29.87,14.85,45.52,14.81,65.28,14.77,19.76-.04,40.07-8.52,56.95-17.78,16.88-9.26,29.79-25.32,29.79-25.32,0,0,9.11-11.16,15.96-23.95-.68.24-2.16.2-2.61-.04-.45-.24,3.98-3.01,4.27-3.2.21-.43.42-.87.63-1.3,6.89-14.57,5.6-14.53,5.6-14.53-4.79,1.81-8.79,5.72-9.71,6.45-.92.73-.38-1.82,1.9-6.45,2.28-4.63,7.26-9.19,7.7-9.43Zm-213.23-8.46c-.62.6-3.12,1.17-4.93.33-1.82-.84-1.08-4.23-1.08-4.23.1-.64,2.79.27,4.93,1.08s1.71,2.22,1.08,2.82Zm12.5,21.11c-4.01.35-8.14-.03-7.26-1.19,1-1.33,2.09-3.09,7.32-3.9,5.23-.81,7.18.95,7.21,1.73.03.79-3.25,3.01-7.26,3.36Zm54.51,1.98c-.79,4.47-3.23,5.85-4.5,4.45-1.27-1.41-.14-5.99.43-9.54.05-.33.84-4.36,2.33-3.85s2.52,4.47,1.73,8.94Zm10.41-1.06s1.72-.75,3.55-.24-2.52,1.73-3.01,1.95c-.49.22-.58-1.33-.54-1.71Zm6.02,5.07c.81.11.68,1.92.49,2.87s-4.01-.92-5.58-1.27c-1.57-.35.62-1.47,2.55-1.6,0,0,1.73-.11,2.55,0Zm-5.63,4.28c.38-1.44,5.2,2.09,5.36,4.77-4.66-1.11-5.54-4.12-5.36-4.77Zm7.34,14.45c-.83-.58-8.14-6.03-6.61-9.27,1.1.58,6.48,5.5,6.86,6.75.38,1.25.58,3.1-.24,2.52Zm1.38-33.37c-.68-.43-1.27,3.42-2.11,4.17-.84.76-5.96,3.44-7.05,3.58s-1.29-1.19-.98-2.23c.3-1.04,7.4-5.2,11.02-8.05,2.22-1.75,4.55-4.65,6.26-7.12,0,1.49,2.91,5.87,3.29,6.56.53.95-3.49,3.25-4.3,3.63-.81.38-1.68-1.84-2.98-2.93-1.3-1.08.24,2.52.87,3.31s-1.54,1.27-2.71,1.57c-1.17.3-.62-2.06-1.3-2.49Zm6.02,8.05c-.65-.73-2.76-1.55-2.01-2.14.81-.63,1.82-1.6,2.01-.6.19,1,.65,3.46,0,2.73Zm.34,11.9c-3.4-2.17-3.14-5.42-2.5-6.94.44-1.03,4.12,3.71,6.72,7.21s-.81,1.9-4.22-.27Zm14.68-2.82c-.73.7-1.57-.98-2.28-2.49-.7-1.52-5.53-7.13-8.24-9.81,0,0-1.73-1.46-2.6-2.22-.87-.76,2.11-2.63,3.2-3.74,1.08-1.11,9.68,12.5,10.63,14.37.95,1.87.03,3.2-.7,3.9Zm22.5.11c-1.71.81-2.52-.41-2.71-1.33-.19-.92,1.16-.89,2.71-1.06.85-.09,1.82-1.98,3.14-2.17s-1.44,3.74-3.14,4.55Zm19.41,5.69c-1.3-.95-11.03-11.22-9.87-12.25.98-.86,2.85-2.93,4.34-1.63,1.49,1.3,9.08,7.16,8.94,10.08-.14,2.93-2.11,4.74-3.42,3.79Zm41.44-3.12c-.68,1.79-8.35,3.63-11.28,4.07-2.93.43-6.26-.08-7.37-1.62-1.11-1.54-.6-4.53,2.11-6.02,2.71-1.49,12.37-2.42,14.96-1.82,1.17.27,2.25,3.61,1.57,5.4Zm3.52-1.14c-1.1,1.14.34-4.49,1.95-5.61,2.93-2.03-.85,4.47-1.95,5.61Zm14.12-.51s-3.29,2.38-3.96,2.1c-.67-.28,5.54-5.84,5.54-5.84l-1.58,3.74Zm-4.61-3.72c4.68-4.37,8.89-7.43,8.89-7.43l-1.5,4.27c-1.91,1.11-11.91,10.82-12.08,10.96-.16.14,0-3.44,4.68-7.81Z"/></svg>